<svg width="256" height="256" viewBox="0 0 256 256" fill="none" xmlns="http://www.w3.org/2000/svg">
  <rect width="256" height="256" rx="44" fill="#FFD400"/>
  <path d="M34 93H77" stroke="#0B1020" stroke-width="13" stroke-linecap="round"/>
  <path d="M27 124H70" stroke="#0B1020" stroke-width="13" stroke-linecap="round"/>
  <path d="M45 155H76" stroke="#0B1020" stroke-width="13" stroke-linecap="round"/>
  <path
    d="M83 164L111 75C116 59 136 54 149 66L177 92C184 99 195 99 203 92L222 75"
    stroke="#0B1020"
    stroke-width="24"
    stroke-linecap="round"
    stroke-linejoin="round"
  />
  <path
    d="M119 161L136 110L160 133C177 150 205 150 224 132L230 126"
    stroke="#0B1020"
    stroke-width="24"
    stroke-linecap="round"
    stroke-linejoin="round"
  />
  <path d="M195 165C213 156 228 145 240 130" stroke="#0B1020" stroke-width="15" stroke-linecap="round"/>
  <path d="M226 78L242 93L219 106" stroke="#0B1020" stroke-width="12" stroke-linecap="round" stroke-linejoin="round"/>
</svg>
