<svg width="256" height="256" viewBox="0 0 256 256" fill="none" xmlns="http://www.w3.org/2000/svg">
  <rect width="256" height="256" rx="56" fill="#07111F"/>
  <rect x="14" y="14" width="228" height="228" rx="44" fill="url(#surface)"/>
  <path d="M56 176V101C56 78 71 64 94 64C116 64 128 78 128 101V176M128 101C128 78 142 64 164 64C187 64 200 78 200 101V126C200 149 185 163 162 163H128" stroke="#F8FAFC" stroke-width="21" stroke-linecap="round" stroke-linejoin="round"/>
  <path d="M56 176V101C56 78 71 64 94 64C116 64 128 78 128 101V176" stroke="url(#accent)" stroke-width="9" stroke-linecap="round" stroke-linejoin="round" opacity="0.9"/>
  <circle cx="196" cy="62" r="20" fill="#07111F" stroke="#F8FAFC" stroke-width="9"/>
  <circle cx="196" cy="62" r="7" fill="#38BDF8"/>
  <defs>
    <linearGradient id="surface" x1="41" y1="25" x2="219" y2="230" gradientUnits="userSpaceOnUse">
      <stop stop-color="#1D4ED8"/>
      <stop offset="0.55" stop-color="#0F2F5F"/>
      <stop offset="1" stop-color="#0F766E"/>
    </linearGradient>
    <linearGradient id="accent" x1="56" y1="64" x2="172" y2="181" gradientUnits="userSpaceOnUse">
      <stop stop-color="#38BDF8"/>
      <stop offset="1" stop-color="#2DD4BF"/>
    </linearGradient>
  </defs>
</svg>
