<svg width="760" height="220" viewBox="0 0 760 220" fill="none" xmlns="http://www.w3.org/2000/svg">
  <rect width="760" height="220" rx="32" fill="#FFD400"/>
  <g transform="translate(42 42)">
    <path d="M0 40H45" stroke="#0B1020" stroke-width="12" stroke-linecap="round"/>
    <path d="M-8 68H36" stroke="#0B1020" stroke-width="12" stroke-linecap="round"/>
    <path d="M10 96H40" stroke="#0B1020" stroke-width="12" stroke-linecap="round"/>
    <path
      d="M50 105L78 20C83 5 102 0 114 11L144 39C151 46 162 46 170 39L192 19"
      stroke="#0B1020"
      stroke-width="22"
      stroke-linecap="round"
      stroke-linejoin="round"
    />
    <path
      d="M84 104L100 57L125 80C142 96 170 96 189 79L204 65"
      stroke="#0B1020"
      stroke-width="22"
      stroke-linecap="round"
      stroke-linejoin="round"
    />
    <path d="M175 108C193 99 211 87 225 72" stroke="#0B1020" stroke-width="14" stroke-linecap="round"/>
    <path d="M207 22L225 38L199 52" stroke="#0B1020" stroke-width="11" stroke-linecap="round" stroke-linejoin="round"/>
  </g>
  <text x="295" y="110" fill="#0B1020" font-family="Arial Black, Arial, sans-serif" font-size="58" font-style="italic" font-weight="900">MePonto</text>
  <text x="301" y="153" fill="#0B1020" font-family="Arial, sans-serif" font-size="18" font-weight="800" letter-spacing="7">CONECTAR · APOIAR · ENTREGAR</text>
</svg>
